<?xml version="1.0" encoding="UTF-8"?>
<svg version="1.1" xmlns="http://www.w3.org/2000/svg" width="370" height="504">
<path d="M0 0 C122.1 0 244.2 0 370 0 C370 166.32 370 332.64 370 504 C247.9 504 125.8 504 0 504 C0 337.68 0 171.36 0 0 Z M69 72 C66.74008896 75.38986656 66.77227268 76.4070576 66.8558197 80.3625946 C66.87419577 81.48676725 66.89257183 82.6109399 66.91150475 83.76917839 C66.95712264 85.63660037 66.95712264 85.63660037 67.00366211 87.54174805 C67.02845864 88.88050027 67.05217748 90.21927282 67.07491493 91.5580616 C67.12622945 94.49284538 67.18324699 97.42744418 67.24438667 100.36203957 C67.41539877 108.6501946 67.541146 116.93915093 67.67138672 125.22802734 C67.69292468 126.57113722 67.69292468 126.57113722 67.71489775 127.94138062 C68.09216854 151.63290691 68.20643669 175.32551762 68.31640625 199.01953125 C68.32709152 201.25950001 68.33780711 203.49946863 68.3485527 205.7394371 C68.40841543 218.29382141 68.46395391 230.84822142 68.51740682 243.4026345 C68.5521956 251.53267425 68.58924791 259.66270133 68.62768555 267.79272461 C68.63313058 268.94442331 68.63857562 270.09612202 68.64418566 271.28272069 C68.65233752 273.00673661 68.65233752 273.00673661 68.66065407 274.76558113 C69.09413664 366.4798228 69.09413664 366.4798228 69 409 C65.29491034 409.79400336 62.04240552 410.05287742 58.25 409.9375 C46.51268333 409.86540346 39.82401387 413.05393796 31.41796875 421.21875 C28.61138546 424.74437529 28.88551711 428.3834374 28.9375 432.75 C28.94652344 433.73484375 28.95554687 434.7196875 28.96484375 435.734375 C28.97644531 436.48203125 28.98804687 437.2296875 29 438 C29.33 438 29.66 438 30 438 C30.08636719 437.21496094 30.17273438 436.42992187 30.26171875 435.62109375 C31.13553491 429.0875142 31.92617219 423.55245704 37 419 C42.47128943 415.45399532 47.72054162 413.94741982 54.203125 413.68359375 C55.1828125 413.64169922 56.1625 413.59980469 57.171875 413.55664062 C58.18765625 413.51732422 59.2034375 413.47800781 60.25 413.4375 C61.28125 413.39431641 62.3125 413.35113281 63.375 413.30664062 C65.9165387 413.20074318 68.45817196 413.09866557 71 413 C71.07685565 352.57014445 70.90339057 292.14203752 70.64418566 231.71275687 C70.63874062 230.44323558 70.63329559 229.17371429 70.62768555 227.86572266 C70.61950524 225.95859226 70.61950524 225.95859226 70.61115968 224.01293397 C70.56665982 213.55010171 70.52690232 203.08725488 70.48800808 192.6244005 C70.44957904 182.3498315 70.40766066 172.07528038 70.36312145 161.80073607 C70.33692678 155.74257381 70.31207879 149.68441429 70.29092598 143.62623215 C70.27111281 137.97975227 70.24690283 132.33330715 70.21950912 126.68685913 C70.21030241 124.64247903 70.20257193 122.59809155 70.19658089 120.55369949 C70.18804183 117.72442806 70.17491508 114.89524417 70.15821838 112.06600952 C70.15303857 111.17115554 70.14785876 110.27630155 70.14252198 109.35433078 C70.09384553 104.36430356 69.94131227 99.39100497 69.69383049 94.40669632 C69.63992651 93.31105413 69.58602253 92.21541194 69.53048509 91.08656847 C69.42068535 88.9696677 69.30081948 86.85325796 69.169478 84.73758447 C69.11890258 83.78412783 69.06832715 82.83067118 69.01621914 81.84832191 C68.9651578 81.0072403 68.91409646 80.16615869 68.86148781 79.29958975 C69.01578948 76.73786192 69.70633767 75.19309582 71 73 C125.1672973 72.76272833 179.33181027 73.33754263 233.49553108 73.90278912 C240.23721446 73.97279307 246.97892144 74.03743578 253.72070312 74.09716797 C260.87194976 74.16072617 268.02286799 74.23819359 275.17379761 74.33084106 C277.57374645 74.35996661 279.97375997 74.38422464 282.37380981 74.40328979 C285.54774885 74.42955888 288.72088813 74.47364088 291.89453125 74.5234375 C292.78352112 74.52665512 293.67251099 74.52987274 294.58843994 74.53318787 C298.95028271 74.623623 301.78375591 74.6954066 305 78 C304.50243908 75.24358584 304.50243908 75.24358584 303 73 C290.0638146 71.25395526 276.72764548 71.79358861 263.70703125 71.71875 C261.1928069 71.70082164 258.67858571 71.68244432 256.16436768 71.66365051 C250.82005145 71.62447259 245.47572818 71.58777264 240.13137817 71.55361938 C226.8408986 71.46866556 213.55049067 71.3735526 200.26009059 71.27704263 C198.13634709 71.26168782 196.01260216 71.24654364 193.88885689 71.23143578 C175.94054014 71.10316757 157.99342288 70.93326722 140.04622841 70.68950272 C136.78678621 70.64524294 133.52733031 70.60217165 130.26786804 70.55941772 C121.28557796 70.4407858 112.30346597 70.31799899 103.32156181 70.17281055 C99.7267746 70.11669499 96.1319122 70.06874194 92.53697968 70.02298546 C90.89362787 70.0001896 89.25032186 69.97374429 87.60709381 69.94330788 C85.38920072 69.90246218 83.17148624 69.87413885 80.95336914 69.84887695 C79.72187637 69.82968704 78.49038361 69.81049713 77.22157288 69.79072571 C73.98250494 70.00113648 71.84919836 70.46763618 69 72 Z M305 78 C303.13447618 79.86552382 303.83587433 83.00046723 303.81054688 85.49169922 C303.80225357 86.16977631 303.79396027 86.84785339 303.78541565 87.54647827 C303.76797893 89.02354437 303.75282211 90.50063868 303.73963928 91.97774887 C303.71866397 94.31427082 303.69163569 96.65065173 303.66296387 98.98709106 C303.60316787 103.94967345 303.55108394 108.91232131 303.5 113.875 C303.44080008 119.61725337 303.37847255 125.35943784 303.30812073 131.10156631 C303.28153025 133.40540626 303.26072219 135.70925298 303.2401123 138.01315308 C303.22350738 139.42527596 303.20663538 140.83739574 303.18945312 142.24951172 C303.17692505 143.48337616 303.16439697 144.7172406 303.15148926 145.98849487 C303 149 303 149 302 152 C299.9375 153.1875 299.9375 153.1875 298 154 C298.66 154.33 299.32 154.66 300 155 C302.11629529 154.3169667 302.11629529 154.3169667 304 153 C305.16191629 149.51425112 305.16038014 146.72888273 305.20532227 143.05004883 C305.21522186 142.34735367 305.22512146 141.64465851 305.23532104 140.92066956 C305.26689234 138.59949099 305.29167613 136.27829195 305.31640625 133.95703125 C305.33697956 132.34705577 305.35797613 130.73708564 305.37937927 129.12712097 C305.43456106 124.89063862 305.48398749 120.65410784 305.53222656 116.4175415 C305.58247001 112.09407239 305.63814123 107.77067356 305.69335938 103.44726562 C305.80089334 94.96490319 305.90234887 86.48248193 306 78 C305.67 78 305.34 78 305 78 Z M79 82 C78.9498891 92.57687927 78.96259206 103.12089796 79.5 113.6875 C79.54769531 114.69876953 79.59539062 115.71003906 79.64453125 116.75195312 C79.75904491 119.16819126 79.87746437 121.58415792 80 124 C84.98047172 122.39152081 88.72834563 119.46007043 92.875 116.375 C100.11806682 111.06366929 107.43208095 105.86880425 114.8125 100.75 C115.78823975 100.07235596 116.76397949 99.39471191 117.76928711 98.6965332 C121.95544733 95.79252432 126.146205 92.89567764 130.3515625 90.01953125 C130.9705542 89.59510742 131.5895459 89.17068359 132.22729492 88.73339844 C133.80429197 87.65370139 135.38442615 86.57859022 136.96484375 85.50390625 C137.63644531 85.00761719 138.30804688 84.51132813 139 84 C139 83.67 139 83.34 139 83 C131.95027802 82.07096687 125.070508 81.86804015 117.96484375 81.90234375 C116.84557999 81.9037587 115.72631622 81.90517365 114.57313538 81.90663147 C111.02789542 81.91219121 107.48272059 81.92473615 103.9375 81.9375 C101.52148529 81.94252021 99.10546959 81.9470822 96.68945312 81.95117188 C90.79294685 81.96214743 84.89647808 81.97884504 79 82 Z M139.72200012 94.3102417 C136.6146459 97.35941546 132.94383962 99.62558988 129.3125 102 C128.05695443 102.85175519 126.80276606 103.70551948 125.55078125 104.5625 C124.96893066 104.95953125 124.38708008 105.3565625 123.78759766 105.765625 C120.83168847 107.80674448 117.91667308 109.90329021 115 112 C115.99 112.33 116.98 112.66 118 113 C120.83690988 111.51445618 120.83690988 111.51445618 123.8125 109.375 C125.42511719 108.26318359 125.42511719 108.26318359 127.0703125 107.12890625 C129.1993989 105.58177013 131.21519129 104.04523449 133.1875 102.3125 C136.26964051 99.77829558 139.43478686 97.97671923 142.94921875 96.11328125 C145.20453062 94.92903318 145.20453062 94.92903318 148 93 C148 92.34 148 91.68 148 91 C148.556875 90.7525 149.11375 90.505 149.6875 90.25 C152.12171132 89.05533332 152.12171132 89.05533332 154.23826599 86.95124817 C157.61631451 84.56455525 159.39811265 84.50892584 163.50024414 84.5300293 C164.80980072 84.52714401 166.1193573 84.52425873 167.46859741 84.52128601 C168.90745582 84.5384794 170.34630872 84.55613824 171.78515625 84.57421875 C173.29724725 84.57882721 174.80934422 84.58174334 176.32144165 84.58308411 C180.3916416 84.59196124 184.46127153 84.62611797 188.5312767 84.66543579 C191.90467578 84.69484109 195.27806673 84.70937738 198.65155888 84.7235775 C229.77045041 84.85540253 260.88827489 85.33388432 292 86 C291.99777939 86.64986877 291.99555878 87.29973755 291.99327087 87.96929932 C291.97100568 94.7835637 291.95600553 101.5978176 291.94506836 108.41210938 C291.94006515 110.94922303 291.9332605 113.48633383 291.92456055 116.0234375 C291.91231818 119.68750718 291.90673141 123.35153847 291.90234375 127.015625 C291.89718246 128.13487366 291.89202118 129.25412231 291.88670349 130.4072876 C291.30081691 142.52293377 291.30081691 142.52293377 294 154 C295.32 153.67 296.64 153.34 298 153 C297.51391769 152.63698288 297.02783539 152.27396576 296.52702332 151.89994812 C294.32249563 149.15703766 294.6008754 147.09191659 294.56762695 143.60083008 C294.55233948 142.63456947 294.55233948 142.63456947 294.53674316 141.64878845 C294.50657961 139.52228131 294.49734269 137.39622434 294.48828125 135.26953125 C294.47143694 133.79406737 294.45328703 132.31861787 294.43388367 130.84318542 C294.38635007 126.96180716 294.35656274 123.08048715 294.33044434 119.19891357 C294.30065556 115.23730969 294.25411952 111.27590663 294.20898438 107.31445312 C294.12291317 99.54306832 294.05558519 91.77166898 294 84 C281.3899932 83.64933344 268.78017067 83.39970187 256.16661072 83.2170105 C248.22180396 83.09932591 240.27919219 82.94010663 232.3359375 82.74316406 C223.63597037 82.52848135 214.93639974 82.36867593 206.23449039 82.25725937 C201.36768067 82.19311358 196.50380735 82.10577062 191.63864136 81.9621582 C163.17267763 80.25442781 163.17267763 80.25442781 139.72200012 94.3102417 Z M114 113 C100.36417479 122.26935542 100.36417479 122.26935542 86.875 131.75 C85.99787354 132.37624268 85.99787354 132.37624268 85.10302734 133.01513672 C82.43932452 134.87116983 82.43932452 134.87116983 80 137 C79.90010815 139.32086578 79.86557598 141.61201664 79.87301636 143.93345642 C79.87145637 144.66866361 79.86989638 145.40387079 79.86828911 146.16135699 C79.86427301 148.6478744 79.8674722 151.13433165 79.87060547 153.62084961 C79.86925075 155.39925675 79.86747042 157.17766362 79.86529541 158.95606995 C79.86070272 163.82913664 79.86252506 168.70218233 79.8656745 173.57524943 C79.8682202 178.75260519 79.86585154 183.92995923 79.86428833 189.10731506 C79.86245993 197.89047562 79.86487674 206.67362783 79.86962891 215.45678711 C79.87436017 224.29891517 79.87455319 233.14102633 79.86962891 241.9831543 C79.83860742 298.99637736 80.12776673 355.99308224 81 413 C81.589021 413.01458252 82.17804199 413.02916504 82.78491211 413.04418945 C85.50303802 413.11953764 88.22004942 413.21590384 90.9375 413.3125 C91.86369141 413.33505859 92.78988281 413.35761719 93.74414062 413.38085938 C101.58431696 413.68346267 108.03817578 415.40764809 115 419 C115 418.34 115 417.68 115 417 C107.48719644 410.60612463 100.22015565 410.00108686 90.68359375 409.453125 C89.94330933 409.40881348 89.2030249 409.36450195 88.44030762 409.31884766 C86.62698859 409.2105898 84.81350927 409.1050228 83 409 C82.84583242 395.68758831 82.70152492 382.37507807 82.5625 369.0625 C82.55147877 368.00756474 82.54045753 366.95262947 82.52910233 365.86572647 C82.01474069 316.30730876 81.72174751 266.74767476 81.4375 217.1875 C81.43195052 216.22078951 81.42640103 215.25407903 81.42068338 214.25807428 C81.2767493 189.17206994 81.13647692 164.08604601 81 139 C81.66 139 82.32 139 83 139 C83 138.34 83 137.68 83 137 C83.55558594 136.74605469 84.11117187 136.49210937 84.68359375 136.23046875 C87.35294965 134.8125141 89.64385211 133.1255954 92.0625 131.3125 C96.88458991 127.74467337 101.84146959 124.53589941 106.98046875 121.4453125 C107.64691406 120.96835938 108.31335938 120.49140625 109 120 C109 119.34 109 118.68 109 118 C111 117 113 116 115 115 C114.505 114.01 114.505 114.01 114 113 Z M115 419 C115.3609375 419.58265625 115.721875 420.1653125 116.09375 420.765625 C120.00378455 427.6733527 120.60742973 433.14390887 120 441 C122.54406562 438.45593438 122.32580106 437.40748394 122.375 433.875 C122.28504471 428.6160753 121.34043729 424.17833962 118 420 C117.01 419.67 116.02 419.34 115 419 Z M30 438 C31 441 31 441 31 441 Z M31 441 C32 443 32 443 32 443 Z M119 441 C117.68 443.31 116.36 445.62 115 448 C115.99 448 116.98 448 118 448 C119.12516085 446.16715557 119.12516085 446.16715557 120 444 C119.67 443.01 119.34 442.02 119 441 Z M32 443 C32.33 444.65 32.66 446.3 33 448 C34.98 448.495 34.98 448.495 37 449 C35.69593116 446.98079663 34.36176581 444.98075027 33 443 C32.67 443 32.34 443 32 443 Z M114 448 C113.01 448.99 112.02 449.98 111 451 C112.32 450.67 113.64 450.34 115 450 C114.67 449.34 114.34 448.68 114 448 Z M42 452 C44.96257199 454.96257199 47.14890339 454.97071915 51.29980469 455.11352539 C52.57758789 455.10828857 53.85537109 455.10305176 55.171875 455.09765625 C55.8542926 455.0962413 56.53671021 455.09482635 57.23980713 455.09336853 C59.40991684 455.08779084 61.5799217 455.07524254 63.75 455.0625 C65.22525892 455.05748211 66.70051947 455.05291971 68.17578125 455.04882812 C71.78388798 455.03782875 75.39193375 455.02057953 79 455 C79 454.67 79 454.34 79 454 C78.12786865 453.97494385 77.2557373 453.9498877 76.35717773 453.92407227 C73.09372237 453.82842637 69.83041392 453.72922644 66.56713867 453.62768555 C65.15995443 453.58461342 63.75272718 453.54292136 62.34545898 453.50268555 C60.31220592 453.4443043 58.27916383 453.38081315 56.24609375 453.31640625 C55.02591553 453.27974854 53.8057373 453.24309082 52.54858398 453.20532227 C48.98598589 452.99918914 45.52359412 452.55531685 42 452 Z M100 453 C104 454 104 454 104 454 Z " fill="#000000" transform="translate(0,0)"/>
<path d="M0 0 C2.54050624 0.02740145 5.0592337 -0.06237418 7.59765625 -0.16015625 C10.2071119 0.01380746 11.76494439 0.68374323 14 2 C13.67 2.99 13.34 3.98 13 5 C12.01 5 11.02 5 10 5 C9.67 5.66 9.34 6.32 9 7 C7.92877548 7.89513282 6.81678975 8.74183602 5.6875 9.5625 C4.965625 10.09230469 4.24375 10.62210938 3.5 11.16796875 C2.675 11.77253906 1.85 12.37710938 1 13 C-0.93870963 14.45672487 -2.87613386 15.91516147 -4.8125 17.375 C-26.99337121 33.99668561 -26.99337121 33.99668561 -35 38 C-35 25.79 -35 13.58 -35 1 C-30.153125 0.649375 -25.30625 0.29875 -20.3125 -0.0625 C-18.79180908 -0.17601807 -17.27111816 -0.28953613 -15.7043457 -0.40649414 C-13.8958313 -0.53205688 -13.8958313 -0.53205688 -12.05078125 -0.66015625 C-10.20480347 -0.79369507 -10.20480347 -0.79369507 -8.3215332 -0.92993164 C-5.31626612 -0.99332831 -2.90587534 -0.6852031 0 0 Z " fill="#000000" transform="translate(116,84)"/>
</svg>
