<?xml version="1.0" encoding="UTF-8"?>
<svg version="1.1" xmlns="http://www.w3.org/2000/svg" width="113" height="83">
<path d="M0 0 C37.29 0 74.58 0 113 0 C113 27.39 113 54.78 113 83 C97.16 83 81.32 83 65 83 C67.80971225 81.1268585 69.82443066 80.36274976 73 79.375 C85.33632233 74.92021694 92.38783685 67.35657471 98.08984375 55.7890625 C101.85273714 46.45986139 101.09232836 35.68421112 97.265625 26.53515625 C91.72072566 15.42824368 84.28708551 9.05104483 73 4 C67.39917697 2.30087391 62.39636669 1.67171978 56.5625 1.75 C55.44174072 1.76232666 55.44174072 1.76232666 54.29833984 1.77490234 C42.17818988 2.02063462 31.73457946 5.83415013 22.62890625 14.171875 C14.03460189 23.81728133 11.45352211 33.5020446 11.7578125 46.125 C12.45499472 57.27991554 18.1930499 65.92858173 26.4375 73.3125 C32.83008429 78.19861482 40.32568876 80.01953258 48 82 C48 82.33 48 82.66 48 83 C32.16 83 16.32 83 0 83 C0 55.61 0 28.22 0 0 Z " fill="#000000" transform="translate(0,0)"/>
<path d="M0 0 C8.48637299 6.54248585 14.18233772 15.24762611 16.28515625 25.76171875 C17.29972202 36.32242605 15.41676764 45.9038101 9.09765625 54.57421875 C1.36042202 63.63924105 -8.79804219 69.95226575 -20.71484375 71.76171875 C-34.2409476 72.803502 -46.82279373 70.15883765 -57.71484375 61.76171875 C-66.45578111 53.59644105 -71.61843768 44.15792761 -72.08984375 32.07421875 C-71.86156097 21.33149962 -68.18729103 12.45656029 -60.71484375 4.76171875 C-43.87046895 -11.27283034 -19.30571634 -12.46238925 0 0 Z M-54.71484375 12.76171875 C-60.38998252 20.53210918 -62.69365652 27.15281028 -61.71484375 36.76171875 C-59.51565756 45.21916052 -55.18363345 51.60701688 -47.96484375 56.51171875 C-38.78552116 61.77939819 -28.97127888 63.29130608 -18.6015625 61.10546875 C-7.98048399 57.97447737 -1.25485212 52.70034462 4.19140625 43.09375 C6.99910154 37.10734254 7.26011936 30.5111483 5.6015625 24.1328125 C2.28435607 15.11716848 -3.06380848 8.97909845 -11.71484375 4.76171875 C-26.42143493 -1.42399274 -43.48535692 1.0218007 -54.71484375 12.76171875 Z " fill="#000000" transform="translate(83.71484375,10.23828125)"/>
<path d="M0 0 C5.15574804 5.3087109 7.88651658 11.77716058 8.30078125 19.15625 C8.08304244 26.64102158 5.11279054 32.63636499 0.23828125 38.3046875 C-0.75171875 38.6346875 -1.74171875 38.9646875 -2.76171875 39.3046875 C-2.76171875 39.9646875 -2.76171875 40.6246875 -2.76171875 41.3046875 C-13.94342782 47.42077889 -23.0699058 49.82560381 -35.66015625 46.55078125 C-41.56078602 44.61893123 -46.7074263 42.14769896 -50.76171875 37.3046875 C-50.76171875 36.6446875 -50.76171875 35.9846875 -50.76171875 35.3046875 C-51.42171875 35.3046875 -52.08171875 35.3046875 -52.76171875 35.3046875 C-57.3566679 29.17808864 -58.36939088 22.28471227 -57.34765625 14.8828125 C-55.17010278 5.30157724 -49.94534376 -0.48982625 -41.76171875 -5.6953125 C-27.76563661 -12.91909683 -11.66076218 -9.90167364 0 0 Z " fill="#000000" transform="translate(80.76171875,22.6953125)"/>
</svg>
