<?xml version="1.0" encoding="UTF-8"?>
<svg version="1.1" xmlns="http://www.w3.org/2000/svg" width="252" height="60">
<path d="M0 0 C83.16 0 166.32 0 252 0 C252 19.8 252 39.6 252 60 C168.84 60 85.68 60 0 60 C0 40.2 0 20.4 0 0 Z M215 18 C215 18.33 215 18.66 215 19 C216.65 19 218.3 19 220 19 C220 18.67 220 18.34 220 18 C218.35 18 216.7 18 215 18 Z M74 19 C74 19.33 74 19.66 74 20 C75.98 20 77.96 20 80 20 C80 19.67 80 19.34 80 19 C78.02 19 76.04 19 74 19 Z M88 19 C88 19.33 88 19.66 88 20 C95.26 20 102.52 20 110 20 C110 19.67 110 19.34 110 19 C102.74 19 95.48 19 88 19 Z M123 19 C123 19.33 123 19.66 123 20 C128.28 20 133.56 20 139 20 C139 19.67 139 19.34 139 19 C133.72 19 128.44 19 123 19 Z M155 19 C155 19.33 155 19.66 155 20 C162.70737298 21.04760409 170.29067878 21.15319708 178.0625 21.125 C179.98292114 21.12209961 179.98292114 21.12209961 181.94213867 21.11914062 C190.99647546 21.07785161 199.97967475 20.79549325 209 20 C209 19.67 209 19.34 209 19 C191.18 19 173.36 19 155 19 Z M63 20 C63 20.33 63 20.66 63 21 C65.31 21 67.62 21 70 21 C70 20.67 70 20.34 70 20 C67.69 20 65.38 20 63 20 Z M53 21 C53 21.33 53 21.66 53 22 C55.64 22 58.28 22 61 22 C61 21.67 61 21.34 61 21 C58.36 21 55.72 21 53 21 Z M38.6875 24 C37.57665039 24.28617188 37.57665039 24.28617188 36.44335938 24.578125 C34.62751624 25.04672968 32.8135599 25.52263523 31 26 C34.04498611 26.95827504 36.02273931 26.99431517 39.109375 26.22265625 C39.86347656 26.03896484 40.61757813 25.85527344 41.39453125 25.66601562 C42.17183594 25.46685547 42.94914062 25.26769531 43.75 25.0625 C44.54277344 24.86720703 45.33554687 24.67191406 46.15234375 24.47070312 C48.10362885 23.98875921 50.05210783 23.49547912 52 23 C52 22.67 52 22.34 52 22 C47.29536265 21.70306036 43.19047 22.80886584 38.6875 24 Z M222 17 C222 17.33 222 17.66 222 18 C225.96 18 229.92 18 234 18 C234 19.32 234 20.64 234 22 C229.08402561 23.5238883 224.31219045 24.51597652 219.1875 25.0625 C218.42542236 25.14483887 217.66334473 25.22717773 216.87817383 25.31201172 C196.57478187 27.33733773 175.69532107 27.8497798 155.3182373 26.63961792 C141.00697977 25.80444772 126.68841545 25.84681579 112.35888672 25.86962891 C108.70739775 25.87536815 105.05598166 25.87200306 101.40449524 25.86605644 C98.53883329 25.86241146 95.67318814 25.8636066 92.80752563 25.86618423 C90.81984406 25.86715344 88.83216178 25.86417533 86.84448242 25.86105347 C78.85221808 25.88149254 70.95876639 26.26723611 63 27 C63 27.33 63 27.66 63 28 C74.72235953 28.13344145 86.44474826 28.26394547 98.1671772 28.39115143 C103.61618732 28.45036405 109.06518476 28.51042183 114.51416016 28.57275391 C136.77182493 28.82660799 159.03003697 29.05339962 181.28922653 29.10528564 C183.24739674 29.11052532 185.20556263 29.1179233 187.16371536 29.12771606 C212.2232238 29.67068597 212.2232238 29.67068597 236 23 C236.2502157 20.08365871 236.2502157 20.08365871 236 17 C231.09481342 13.72987561 227.36420269 15.59299602 222 17 Z M27 27 C31 28 31 28 31 28 Z M23 28 C27 29 27 29 27 29 Z M53 28 C53 28.33 53 28.66 53 29 C56.3 29 59.6 29 63 29 C63 28.67 63 28.34 63 28 C59.7 28 56.4 28 53 28 Z M40.94921875 30.3125 C39.96100883 30.5122644 39.96100883 30.5122644 38.95283508 30.71606445 C36.86343772 31.13950986 34.77548427 31.56964658 32.6875 32 C31.26506426 32.28950656 29.84253903 32.57857374 28.41992188 32.8671875 C24.94556422 33.57304279 21.47246872 34.28490284 18 35 C18.33 33.35 18.66 31.7 19 30 C18.01 30.33 17.02 30.66 16 31 C16.33 32.65 16.66 34.3 17 36 C20.78080022 36.97079767 23.44382881 36.93877317 27.23828125 36.07421875 C28.22376953 35.85443359 29.20925781 35.63464844 30.22460938 35.40820312 C31.24361328 35.17037109 32.26261719 34.93253906 33.3125 34.6875 C34.31990234 34.46126953 35.32730469 34.23503906 36.36523438 34.00195312 C41.92995151 32.74400078 47.47120974 31.40696813 53 30 C53 29.67 53 29.34 53 29 C48.81038792 28.83311089 45.05076506 29.47473735 40.94921875 30.3125 Z " fill="#000000" transform="translate(0,0)"/>
</svg>
