<?xml version="1.0" encoding="UTF-8"?>
<svg version="1.1" xmlns="http://www.w3.org/2000/svg" width="55" height="130">
<path d="M0 0 C3.3125 -0.3125 3.3125 -0.3125 7 0 C10.35634415 4.17233048 11.44632147 9.36280587 12.84741211 14.43334961 C13.11452499 15.37719513 13.38163788 16.32104065 13.65684509 17.29348755 C14.53731052 20.41119109 15.40733879 23.53170658 16.27734375 26.65234375 C16.89059142 28.83144598 17.5044983 31.01036279 18.11903381 33.18910217 C19.73669551 38.93090334 21.34557055 44.67513046 22.95257568 50.41992188 C24.57720123 56.22214159 26.20973428 62.02213431 27.84179688 67.82226562 C29.68191213 74.36347932 31.5212009 80.90491697 33.35472107 87.44798279 C33.77434537 88.9443469 33.77434537 88.9443469 34.20244694 90.47094059 C34.74078988 92.39354265 35.27761315 94.31657102 35.81275845 96.24006557 C36.93946398 100.28013419 38.08148172 104.31029252 39.32156372 108.31716919 C39.88664139 110.16639481 39.88664139 110.16639481 40.46313477 112.05297852 C40.78814468 113.07657974 41.1131546 114.10018097 41.44801331 115.15480042 C42.08593001 118.44292377 41.84579372 120.77037636 41 124 C40.34 124.66 39.68 125.32 39 126 C36.0625 126 36.0625 126 33 125 C30.55763062 120.88111384 29.18169941 116.67340358 27.89038086 112.08129883 C27.70118073 111.41487869 27.51198059 110.74845856 27.31704712 110.06184387 C26.69395554 107.86180186 26.0794139 105.65946741 25.46484375 103.45703125 C25.02280498 101.8902023 24.58021219 100.32352956 24.13710022 98.75700378 C22.96680634 94.61431931 21.80363837 90.4696677 20.64208984 86.32452393 C19.27099679 81.43626363 17.89187114 76.5502655 16.51352882 71.66404533 C15.37461943 67.62569356 14.23787467 63.5867605 13.10604858 59.54641724 C10.81218205 51.36640674 8.48245475 43.19905271 6.08642578 35.04833984 C5.38730718 32.65595316 4.68887994 30.26336558 3.99060249 27.87073326 C3.54687025 26.3592482 3.09930138 24.84888332 2.64759636 23.33976173 C2.02318922 21.25351531 1.41192026 19.16380189 0.80297852 17.07299805 C0.45364761 15.89561569 0.10431671 14.71823334 -0.25559998 13.50517273 C-1.18720162 9.11851962 -2.07391398 4.14782797 0 0 Z " fill="#000000" transform="translate(6,0)"/>
</svg>
